<svg fill="#FFFFFF" xmlns="http://www.w3.org/2000/svg"  viewBox="0 0 48 48" width="20px" height="20px"><path d="M 26.216797 7.1015625 C 26.084935 7.1013567 25.952471 7.1110209 25.820312 7.1289062 C 25.29168 7.2004472 24.770296 7.4185563 24.339844 7.8007812 A 1.50015 1.50015 0 0 0 24.339844 7.8027344 L 15.117188 16 L 8.5 16 C 6.0324991 16 4 18.032499 4 20.5 L 4 27.5 C 4 29.967501 6.0324991 32 8.5 32 L 15.117188 32 L 24.339844 40.197266 C 25.200649 40.96254 26.421458 41.075139 27.345703 40.660156 C 28.269948 40.245173 29 39.257378 29 38.105469 L 29 9.8945312 C 29 8.7430679 28.271967 7.7549754 27.347656 7.3398438 C 27.00104 7.1841693 26.612384 7.10218 26.216797 7.1015625 z M 26 10.339844 L 26 37.660156 L 16.683594 29.378906 A 1.50015 1.50015 0 0 0 15.6875 29 L 8.5 29 C 7.6535009 29 7 28.346499 7 27.5 L 7 20.5 C 7 20.394188 7.0097744 20.292241 7.0292969 20.193359 C 7.1659543 19.501187 7.7593133 19 8.5 19 L 15.6875 19 A 1.50015 1.50015 0 0 0 16.683594 18.621094 L 26 10.339844 z M 43.486328 17.978516 A 1.50015 1.50015 0 0 0 42.439453 18.439453 L 39 21.878906 L 35.560547 18.439453 A 1.50015 1.50015 0 0 0 34.484375 17.984375 A 1.50015 1.50015 0 0 0 33.439453 20.560547 L 36.878906 24 L 33.439453 27.439453 A 1.50015 1.50015 0 1 0 35.560547 29.560547 L 39 26.121094 L 42.439453 29.560547 A 1.50015 1.50015 0 1 0 44.560547 27.439453 L 41.121094 24 L 44.560547 20.560547 A 1.50015 1.50015 0 0 0 43.486328 17.978516 z"/></svg>